<?xml version="1.0" standalone="no"?><!DOCTYPE svg PUBLIC "-//W3C//DTD SVG 1.1//EN" "http://www.w3.org/Graphics/SVG/1.1/DTD/svg11.dtd"><svg t="1590214825204" class="icon" viewBox="0 0 1024 1024" version="1.1" xmlns="http://www.w3.org/2000/svg" p-id="887" width="16" height="16" xmlns:xlink="http://www.w3.org/1999/xlink"><defs><style type="text/css"></style></defs><path d="M1024 85.7l-99.6 441-196.3-200.9z" fill="#98CC98" p-id="888"></path><path d="M700.4 291.9S924.4 93.6 1024 85.7L728.1 325.8l-27.7-33.9zM0 120.6l315.1 175.3 52.7-36.6z" fill="#050505" p-id="889"></path><path d="M0 120.6l157.6 350.6 157.5-175.3z" fill="#98CC98" p-id="890"></path><path d="M111.1 552.9a433.3 384.8 0 1 0 866.6 0 433.3 384.8 0 1 0-866.6 0Z" fill="#050505" p-id="891"></path><path d="M568.7 546a187.2 218.4 0 1 0 374.4 0 187.2 218.4 0 1 0-374.4 0Z" fill="#FFFFCC" p-id="892"></path><path d="M152.7 546a187.2 218.4 0 1 0 374.4 0 187.2 218.4 0 1 0-374.4 0Z" fill="#FFFFCC" p-id="893"></path><path d="M234.2 546a105.7 123.3 0 1 0 211.4 0 105.7 123.3 0 1 0-211.4 0Z" fill="#050505" p-id="894"></path><path d="M650.2 546a105.7 123.3 0 1 0 211.4 0 105.7 123.3 0 1 0-211.4 0Z" fill="#050505" p-id="895"></path><path d="M558 864.6m-51.7 0a51.7 51.7 0 1 0 103.4 0 51.7 51.7 0 1 0-103.4 0Z" fill="#327798" p-id="896"></path></svg>