<?xml version="1.0" standalone="no"?><!DOCTYPE svg PUBLIC "-//W3C//DTD SVG 1.1//EN"
        "http://www.w3.org/Graphics/SVG/1.1/DTD/svg11.dtd">
<svg t="1590215018669" class="icon" viewBox="0 0 1024 1024" version="1.1" xmlns="http://www.w3.org/2000/svg" p-id="1933"
     width="16" height="16">
    <defs>
        <style type="text/css"></style>
    </defs>
    <path d="M775.220804 422.308871 332.923212 422.308871C340.522442 358.217144 285.356781 97.649586 489.111865 91.299971c193.729153-7.349648 163.584804 237.76603 163.584804 237.76603l94.886268 0.643366c0 0 27.571311-328.109485-258.471072-329.709368C176.934651 15.835425 250.179414 371.546087 240.663311 422.308871c2.209971 0 5.082934 0 8.122711 0-62.292179 0-112.801541 50.536241-112.801541 112.798555l0 376.025758c0 62.288765 50.536241 112.791729 112.801541 112.791729l526.434781 0c62.288765 0 112.791729-50.536241 112.791729-112.791729L888.012532 535.107425C888.012532 472.845538 837.482691 422.308871 775.220804 422.308871zM549.584017 750.311697l0 85.640226c0 20.691816-16.892201 37.584017-37.573778 37.584017-20.705042 0-37.597243-16.892201-37.597243-37.584017l0-85.640226c-22.398357-13.039257-37.597243-37.023845-37.597243-64.782023 0-41.550446 33.677744-75.207711 75.207711-75.207711 41.533808 0 75.211125 33.657692 75.211125 75.207711C587.207711 713.287852 572.022478 737.27244 549.584017 750.311697z"
          p-id="1934"></path>
</svg>
